<?xml version="1.0" standalone="no"?>
<!DOCTYPE svg PUBLIC "-//W3C//DTD SVG 20010904//EN"
 "http://www.w3.org/TR/2001/REC-SVG-20010904/DTD/svg10.dtd">
<svg version="1.0" xmlns="http://www.w3.org/2000/svg"
 width="426.000000pt" height="274.000000pt" viewBox="0 0 426.000000 274.000000"
 preserveAspectRatio="xMidYMid meet">

<g transform="translate(0.000000,274.000000) scale(0.100000,-0.100000)"
fill="#000000" stroke="none">
<path d="M2429 2676 c-86 -30 -105 -56 -224 -301 -287 -586 -436 -901 -450
-948 -19 -65 -19 -159 1 -226 8 -29 14 -54 12 -55 -2 -1 -28 -19 -60 -39 -151
-98 -238 -285 -209 -449 14 -80 43 -161 76 -208 54 -77 39 -162 -34 -200 -48
-24 -71 -63 -71 -121 0 -33 6 -47 34 -75 60 -60 78 -55 395 108 152 78 296
155 321 172 189 128 256 367 162 575 l-20 44 72 71 c57 56 78 85 95 131 27 70
221 1209 221 1296 0 161 -168 280 -321 225z m112 -176 c4 0 15 -13 23 -28 13
-26 8 -67 -65 -497 -43 -259 -84 -501 -90 -540 -7 -38 -15 -73 -18 -77 -4 -4
-47 5 -96 21 -50 16 -139 44 -199 62 -59 18 -110 38 -112 44 -3 6 41 105 97
221 55 115 120 250 144 299 123 259 216 452 223 465 12 20 54 41 70 35 8 -3
18 -5 23 -5z m-507 -1557 c132 -42 151 -51 168 -78 67 -110 46 -272 -46 -353
-30 -26 -337 -192 -355 -192 -5 0 -11 29 -13 65 -3 35 -15 81 -25 102 -87 166
-85 163 -85 232 0 84 27 144 88 201 37 34 91 67 114 70 3 0 72 -21 154 -47z"/>
<path d="M1153 2393 c-13 -2 -23 -9 -23 -14 0 -5 -6 -9 -14 -9 -18 0 -1006
-987 -1006 -1005 0 -7 -6 -15 -12 -18 -9 -2 -13 -26 -12 -75 1 -65 4 -73 33
-102 17 -17 31 -38 31 -45 0 -8 9 -17 21 -20 27 -9 55 -37 64 -64 3 -12 12
-21 19 -21 16 0 66 -45 66 -60 0 -5 5 -10 10 -10 15 0 60 -50 60 -66 0 -7 9
-16 21 -19 27 -9 55 -37 64 -64 3 -12 12 -21 19 -21 16 0 66 -45 66 -60 0 -5
5 -10 10 -10 15 0 60 -50 60 -66 0 -8 6 -14 14 -14 18 0 62 -42 70 -67 4 -12
18 -24 31 -27 15 -4 27 -16 31 -31 3 -13 15 -27 27 -31 25 -8 67 -52 67 -70 0
-8 6 -14 14 -14 16 0 66 -45 66 -60 0 -5 5 -10 10 -10 15 0 60 -50 60 -66 0
-7 10 -16 22 -20 12 -4 33 -20 47 -35 14 -16 36 -29 48 -29 13 0 23 -4 23 -10
0 -5 20 -10 45 -10 25 0 45 4 45 9 0 5 14 12 30 16 17 4 30 11 30 16 0 5 7 9
15 9 9 0 19 8 22 17 4 10 11 21 17 25 7 4 11 45 11 98 0 77 -3 93 -17 101 -10
6 -18 15 -18 20 0 14 -26 39 -39 39 -6 0 -11 6 -11 13 0 12 -43 57 -55 57 -9
0 -35 27 -35 37 0 11 -37 43 -50 43 -6 0 -14 8 -17 18 -9 22 -58 72 -72 72 -6
0 -11 6 -11 13 0 15 -44 57 -59 57 -6 0 -11 5 -11 11 0 14 -50 63 -72 72 -10
3 -18 13 -18 22 0 8 -5 15 -11 15 -6 0 -87 76 -180 169 -125 125 -167 173
-163 186 8 20 322 335 334 335 11 0 470 459 470 470 0 5 8 16 18 26 13 14 17
35 17 99 0 64 -4 85 -17 99 -10 10 -18 23 -18 31 0 7 -12 16 -27 20 -15 3 -30
10 -33 15 -6 10 -97 19 -127 13z"/>
<path d="M3030 2381 c0 -4 -17 -11 -39 -14 -27 -3 -50 -16 -77 -43 l-39 -39 0
-86 c0 -79 2 -88 26 -110 14 -13 28 -32 32 -41 3 -10 11 -18 17 -18 13 0 50
-32 50 -43 0 -10 26 -37 35 -37 12 0 55 -45 55 -57 0 -7 5 -13 11 -13 14 0 69
-55 69 -69 0 -6 5 -11 11 -11 13 0 59 -41 59 -53 0 -11 26 -37 37 -37 11 0 43
-37 43 -50 0 -6 8 -14 18 -17 22 -9 382 -367 382 -381 0 -6 -190 -200 -422
-433 l-423 -422 0 -82 c0 -64 4 -85 18 -99 9 -10 17 -23 17 -31 0 -7 12 -16
27 -20 15 -3 31 -12 35 -18 5 -8 36 -12 84 -11 61 0 78 4 86 17 5 9 14 17 19
17 18 0 966 954 974 980 4 14 13 28 19 32 6 4 11 36 11 76 0 52 -4 73 -18 86
-9 10 -17 22 -17 27 0 14 -35 46 -58 53 -11 4 -23 18 -26 31 -4 15 -16 27 -31
31 -13 3 -27 15 -31 27 -8 25 -52 67 -70 67 -8 0 -14 6 -14 14 0 16 -45 66
-60 66 -5 0 -10 5 -10 10 0 15 -50 60 -66 60 -7 0 -16 9 -19 21 -9 27 -37 55
-64 64 -12 3 -21 12 -21 19 0 16 -45 66 -60 66 -5 0 -10 5 -10 10 0 15 -50 60
-66 60 -8 0 -14 6 -14 14 0 18 -42 62 -67 70 -12 4 -24 18 -27 31 -4 15 -16
27 -31 31 -13 3 -27 15 -31 27 -8 25 -52 67 -70 67 -8 0 -14 6 -14 14 0 16
-45 66 -60 66 -5 0 -10 7 -10 15 0 8 -11 17 -25 21 -14 3 -25 10 -25 15 0 4
-16 11 -35 15 -19 3 -35 10 -35 15 0 5 -11 9 -25 9 -14 0 -25 -4 -25 -9z"/>
</g>
</svg>
